<?xml version="1.0" encoding="UTF-8"?>
<svg width="261px" height="33px" viewBox="0 0 261 33" version="1.1" xmlns="http://www.w3.org/2000/svg" xmlns:xlink="http://www.w3.org/1999/xlink">
    <title>A/1.Logos/McCombs/White Full</title>
    <g id="Organisms" stroke="none" stroke-width="1" fill="none" fill-rule="evenodd">
        <g id="O/1.Navigation/UtilityNav" transform="translate(-165.000000, -24.000000)">
            <g id="A/1.Logos/McCombs/White-Full" transform="translate(165.000000, 24.000000)">
                <g id="mccombs" transform="translate(33.618304, 15.256849)" fill="#333F48" fill-rule="nonzero">
                    <polygon id="Path" points="12.1130753 0.30739726 14.1198684 0.361643836 15.8012356 0.30739726 15.8916316 0.940273973 14.3548982 1.17534247 14.3548982 12.1331507 15.8012356 12.3682192 15.7108395 13.0010959 13.5413334 12.9468493 10.919847 13.0010959 10.8294509 12.3682192 12.4565804 12.1331507 12.4565804 3.86958904 12.6916102 1.7539726 8.11756838 12.9830137 6.99665693 12.9830137 3.38081356 3.85150685 2.71188253 1.7539726 2.71188253 12.1512329 4.30285362 12.3863014 4.15821988 13.0191781 2.22374368 12.9649315 0.180792169 13.0191781 0.0903960844 12.3863014 1.53673343 12.1512329 1.53673343 1.21150685 0 0.940273973 0.0903960844 0.30739726 1.95255542 0.361643836 3.94126928 0.30739726 7.73790482 9.87287671 7.88253856 10.8854795"></polygon>
                    <path d="M21.7492979,5.46082192 C21.4465398,5.2401249 21.0737748,5.13727625 20.7007033,5.17150685 C19.4713166,5.17150685 18.5311973,6.52767123 18.5311973,8.51671233 C18.5311973,10.5057534 19.5797919,11.8980822 21.3515551,11.8980822 C22.0903234,11.8417884 22.7983189,11.5785964 23.3945066,11.1386301 L23.6837741,11.8257534 C22.7851183,12.4580847 21.7899022,12.9405081 20.7368618,13.2542466 C18.422722,13.2542466 16.7051964,11.7353425 16.7051964,8.95068493 C16.7051964,6.1660274 18.7843063,4.75561644 21.00805,4.21315068 C21.9140417,4.24471452 22.7870408,4.56107058 23.5029819,5.11726027 L23.5029819,6.92547945 L22.1470407,6.92547945 L21.7492979,5.46082192 Z" id="Path"></path>
                    <path d="M36.592335,9.29424658 L36.1403545,11.8980822 C34.7448873,12.5608269 33.267534,13.0351171 31.7471048,13.3084932 C28.3843705,13.3084932 25.2385868,11.0482192 25.2385868,6.8169863 C25.2385868,2.58575342 28.0408654,0.542465753 32.0725307,1.04391381e-14 C33.6201066,0.0353392145 35.1229787,0.525897018 36.3934636,1.41041096 L36.3934636,3.85150685 L35.3991067,3.85150685 L34.8205717,2.16986301 C34.0301967,1.36707281 32.9457638,0.922774185 31.8194217,0.940273973 C29.1436976,0.940273973 27.2996175,2.83890411 27.2996175,6.36493151 C27.2996175,9.29424658 29.1075392,12.2958904 32.2714021,12.2958904 C33.1575272,12.2568316 33.9992474,11.896953 34.6397795,11.2832877 L35.6160573,9.27616438 L36.592335,9.29424658 Z" id="Path"></path>
                    <path d="M45.9754485,8.55287671 C45.9754485,11.2652055 44.3302398,12.8021918 41.5279612,13.2542466 C39.1234253,13.2542466 37.4962958,11.3917808 37.4962958,8.93260274 C37.4962958,6.22027397 39.1415045,4.68328767 41.9437832,4.21315068 C44.348319,4.21315068 45.9754485,6.09369863 45.9754485,8.55287671 Z M41.9799416,12.3682192 C43.4262789,12.3682192 44.1675268,10.8854795 44.1675268,8.93260274 C44.1675268,6.63616438 43.0646946,5.09917808 41.4918027,5.09917808 C40.0273862,5.09917808 39.3042175,6.58191781 39.3042175,8.55287671 C39.3042175,10.6142466 40.3708913,12.3682192 41.9799416,12.3682192 L41.9799416,12.3682192 Z" id="Shape"></path>
                    <path d="M59.0828808,12.9468493 L57.3653552,13.0010959 L57.2749591,12.3682192 L58.1789199,12.1873973 L58.1789199,7.01589041 C58.1789199,6.07561644 57.7811771,5.65972603 57.1303253,5.65972603 C56.4509453,5.75066122 55.8114019,6.03285915 55.2862452,6.47342466 L54.7438687,6.85315068 L54.7438687,12.1873973 L55.5574335,12.3682192 L55.4670374,13.0010959 L53.930304,12.9468493 L52.3031744,13.0010959 L52.2127783,12.3682192 L53.0263431,12.1873973 L53.0263431,7.01589041 C53.0263431,6.07561644 52.6286003,5.65972603 51.9777485,5.65972603 C51.2983685,5.75066122 50.6588251,6.03285915 50.1336684,6.47342466 L49.5912919,6.85315068 L49.5912919,12.1873973 L50.4952527,12.3682192 L50.4048567,13.0010959 L48.7777271,12.9468493 L46.6986172,13.0010959 L46.6082211,12.3682192 L47.8737663,12.1873973 L47.8737663,5.58739726 L46.6082211,5.69589041 L46.517825,5.0630137 L48.6873311,4.50246575 L49.4647374,4.44821918 L49.5551335,5.9490411 L52.0500654,4.21315068 C53.8037494,4.21315068 54.4546012,4.73753425 54.6534726,5.98520548 L57.2026422,4.21315068 C59.516782,4.21315068 59.9145247,5.08109589 59.9145247,7.37753425 L59.9145247,12.1873973 L61.270466,12.3682192 L61.1800699,13.0010959 L59.0828808,12.9468493 Z" id="Path"></path>
                    <path d="M65.6998741,13.2542466 C64.5869675,13.3120274 63.4830015,13.0281037 62.5360112,12.4405479 L62.5360112,1.28383562 L61.270466,1.32 L61.1800699,0.705205479 L63.3495759,0.144657534 L64.2535368,0.0723287671 L64.2535368,5.9490411 L66.5134389,4.23123288 C68.5021528,4.23123288 70.2015991,5.78630137 70.2015991,8.3539726 C70.2377576,11.4641096 68.3936775,12.8564384 65.6998741,13.2542466 Z M66.5495973,5.65972603 C65.9052039,5.70887975 65.2950771,5.9694976 64.8139925,6.40109589 L64.271616,6.85315068 L64.271616,11.6449315 C64.7403326,12.1376351 65.4003825,12.4016985 66.0795377,12.3682192 C67.525875,12.3682192 68.4479151,11.0482192 68.4479151,8.91452055 C68.4298359,6.89383562 67.6253107,5.65972603 66.5495973,5.65972603 L66.5495973,5.65972603 Z" id="Shape"></path>
                    <path d="M76.023107,5.4969863 C75.6123616,5.25108354 75.145638,5.11415542 74.6671657,5.09917808 C73.9620763,5.09917808 73.3112244,5.47890411 73.3112244,6.1660274 C73.3112244,6.74465753 73.7632049,7.10630137 74.5767696,7.52219178 L75.9688693,8.22739726 C77.1801769,8.84219178 77.6683157,9.52931507 77.6683157,10.56 C77.6683157,12.1873973 76.3485329,12.820274 74.2694229,13.2723288 C73.3023919,13.2197621 72.3611704,12.9410651 71.521382,12.4586301 L71.1778769,10.4153425 L72.3349467,10.4153425 L72.9496401,11.9161644 C73.3893149,12.2078812 73.9045242,12.364983 74.4321359,12.3682192 C74.8099031,12.404814 75.1851375,12.2769788 75.4620224,12.0173565 C75.7389073,11.7577342 75.8906392,11.3914572 75.8784732,11.0120548 C75.8784732,10.3068493 75.4988097,9.99945205 74.5586904,9.51123288 L73.1304323,8.76986301 C72.353026,8.37205479 71.6117781,7.68493151 71.6117781,6.67232877 C71.6117781,5.40657534 72.7869272,4.70136986 74.8841163,4.24931507 C75.7934031,4.27560071 76.6768842,4.55760917 77.4332859,5.0630137 L77.4332859,6.87123288 L76.438929,6.87123288 L76.023107,5.4969863 Z" id="Path"></path>
                    <path d="M85.2525472,11.1747945 C85.8988492,11.9036202 86.8277066,12.3187099 87.8017168,12.3139726 C89.3565294,12.3139726 90.2604903,11.3375342 90.2604903,10.0175342 C90.2604903,8.78794521 89.4650047,8.08273973 88.3802517,7.61260274 L86.1926665,6.65424658 C84.8909629,6.09369863 83.8242891,5.26191781 83.8242891,3.65260274 C83.8242891,1.68164384 85.6322108,0.524383562 88.1452219,-8.03010626e-16 C89.3292436,0.00356928508 90.4838,0.369554446 91.4537186,1.04876712 L91.4537186,3.48986301 L90.5497577,3.48986301 L90.0254605,1.84438356 C89.4876522,1.23583062 88.7033443,0.903442049 87.8921129,0.940273973 C86.4638547,0.940273973 85.6322108,1.71780822 85.6322108,2.92931507 C85.6322108,3.92383562 86.3373002,4.53863014 87.3316571,4.97260274 L89.4107671,5.87671233 C90.8390252,6.49150685 92.0864912,7.39561644 92.068412,9.24 C92.068412,10.939726 90.9113421,12.5852055 87.5124493,13.3084932 C86.1577221,13.3621625 84.8290491,12.9256184 83.7700514,12.0789041 L83.3723086,9.63780822 L84.6378538,9.63780822 L85.2525472,11.1747945 Z" id="Path"></path>
                    <path d="M98.2967022,5.46082192 C97.993944,5.2401249 97.621179,5.13727625 97.2481076,5.17150685 C96.0187208,5.17150685 95.0786016,6.52767123 95.0786016,8.51671233 C95.0786016,10.5057534 96.1271962,11.8980822 97.8989594,11.8980822 C98.6377276,11.8417884 99.3457231,11.5785964 99.9419109,11.1386301 L100.231178,11.8257534 C99.3325226,12.4580847 98.3373065,12.9405081 97.284266,13.2542466 C94.9701263,13.2542466 93.2526007,11.7353425 93.2526007,8.95068493 C93.2526007,6.1660274 95.3317106,4.75561644 97.5554543,4.21315068 C98.461446,4.24471452 99.3344451,4.56107058 100.050386,5.11726027 L100.050386,6.92547945 L98.6944449,6.92547945 L98.2967022,5.46082192 Z" id="Path"></path>
                    <path d="M104.027814,12.1873973 L105.022171,12.3682192 L104.931775,13.0010959 L103.214249,12.9468493 L101.135139,13.0010959 L101.044743,12.3682192 L102.310288,12.1873973 L102.310288,1.28383562 L101.044743,1.32 L100.954347,0.705205479 L103.123853,0.144657534 L104.027814,0.0723287671 L104.027814,5.9490411 L106.66738,4.23123288 C108.981519,4.23123288 109.379262,5.09917808 109.379262,7.39561644 L109.379262,12.2054795 L110.735203,12.3863014 L110.644807,13.0191781 L108.565697,12.9649315 L106.866251,13.0191781 L106.775855,12.3863014 L107.679816,12.2054795 L107.679816,7.01589041 C107.679816,6.07561644 107.227835,5.65972603 106.522746,5.65972603 C105.980369,5.65972603 105.27528,6.05753425 104.606349,6.47342466 L104.063972,6.8169863 L104.027814,12.1873973 Z" id="Path"></path>
                    <path d="M119.603059,8.55287671 C119.603059,11.2652055 117.957851,12.8021918 115.155572,13.2542466 C112.751036,13.2542466 111.123907,11.3917808 111.123907,8.93260274 C111.123907,6.22027397 112.769115,4.68328767 115.571394,4.21315068 C117.96689,4.21315068 119.603059,6.09369863 119.603059,8.55287671 Z M115.607552,12.3682192 C117.05389,12.3682192 117.795138,10.8854795 117.795138,8.93260274 C117.795138,6.63616438 116.692305,5.09917808 115.119413,5.09917808 C113.654997,5.09917808 112.931828,6.58191781 112.931828,8.55287671 C112.922789,10.6142466 113.989462,12.3682192 115.598513,12.3682192 L115.607552,12.3682192 Z" id="Shape"></path>
                    <path d="M129.248321,8.55287671 C129.248321,11.2652055 127.603113,12.8021918 124.800834,13.2542466 C122.396298,13.2542466 120.769169,11.3917808 120.769169,8.93260274 C120.769169,6.22027397 122.414377,4.68328767 125.216656,4.21315068 C127.621192,4.21315068 129.248321,6.09369863 129.248321,8.55287671 Z M125.252815,12.3682192 C126.699152,12.3682192 127.4404,10.8854795 127.4404,8.93260274 C127.4404,6.63616438 126.337568,5.09917808 124.764676,5.09917808 C123.300259,5.09917808 122.57709,6.58191781 122.57709,8.55287671 C122.57709,10.6142466 123.643764,12.3682192 125.252815,12.3682192 L125.252815,12.3682192 Z" id="Shape"></path>
                    <polygon id="Path" points="132.0506 12.9468493 129.97149 13.0010959 129.881094 12.3682192 131.146639 12.1873973 131.146639 1.30191781 129.881094 1.33808219 129.790698 0.705205479 131.960204 0.144657534 132.864165 0.0723287671 132.864165 12.1873973 134.220106 12.3682192 134.12971 13.0010959"></polygon>
                    <path d="M147.942232,8.55287671 C147.942232,11.2652055 146.297023,12.8021918 143.494744,13.2542466 C141.090209,13.2542466 139.463079,11.3917808 139.463079,8.93260274 C139.463079,6.22027397 141.108288,4.68328767 143.910566,4.21315068 C146.315102,4.21315068 147.942232,6.09369863 147.942232,8.55287671 Z M143.946725,12.3682192 C145.393062,12.3682192 146.13431,10.8854795 146.13431,8.93260274 C146.13431,6.63616438 145.031478,5.09917808 143.458586,5.09917808 C141.994169,5.09917808 141.271001,6.58191781 141.271001,8.55287671 C141.271001,10.6142466 142.337674,12.3682192 143.946725,12.3682192 L143.946725,12.3682192 Z" id="Shape"></path>
                    <path d="M152.010056,4.66520548 L154.269958,4.66520548 L154.269958,5.53767123 L152.010056,5.53767123 L152.010056,12.21 L154.089165,12.3365753 L153.998769,13.0236986 L151.196491,12.9694521 L149.117381,13.0236986 L149.026985,12.3908219 L150.29253,12.21 L150.29253,5.53767123 L148.701559,5.53767123 L148.701559,5.23027397 L149.243935,4.59739726 L150.29253,4.59739726 L150.29253,4.41657534 C150.270109,3.47333221 150.628536,2.56082178 151.286887,1.88506849 L152.805541,0.167260274 L155.065443,0.167260274 L155.065443,1.61383562 L152.715145,1.61383562 L152.37164,2.10205479 C152.118531,2.44561644 151.991976,2.97 151.991976,4.14534247 L152.010056,4.66520548 Z" id="Path"></path>
                    <path d="M162.821427,12.9468493 L160.326495,13.0010959 L160.236099,12.3682192 L161.863229,12.1331507 L161.863229,1.17534247 L160.236099,0.940273973 L160.326495,0.30739726 L162.821427,0.361643836 L166.383033,0.30739726 C168.75141,0.30739726 169.872322,1.66356164 169.872322,3.01972603 C169.872322,4.37589041 168.674574,5.73205479 167.011286,6.14794521 C169.384183,6.25643836 170.627129,7.63068493 170.627129,9.25808219 C170.627129,11.6991781 168.606777,12.5671233 165.75026,12.9830137 L162.821427,12.9468493 Z M163.761546,1.19342466 L163.761546,5.9490411 L165.253082,5.9490411 C165.970556,5.96073985 166.661254,5.67675873 167.163065,5.16375011 C167.664876,4.65074149 167.933615,3.95387579 167.906207,3.23671233 C167.906207,1.9709589 167.13332,1.13917808 165.646305,1.1030137 L163.761546,1.19342466 Z M165.388676,12.2416438 C167.865529,12.2416438 168.642935,10.6684932 168.642935,9.36657534 C168.642935,7.86575342 167.59434,6.76273973 165.786419,6.76273973 L163.761546,6.76273973 L163.761546,12.1512329 L165.388676,12.2416438 Z" id="Shape"></path>
                    <path d="M179.666738,10.6323288 C179.632353,11.095537 179.708251,11.5602998 179.888208,11.9884932 L180.792169,11.9884932 L180.864486,12.6213699 L178.536786,13.0734247 L178.026049,11.6087671 L175.404562,13.2542466 C173.022625,13.2542466 172.624883,12.4043836 172.624883,10.3068493 L172.624883,5.58739726 L171.359337,5.67780822 L171.268941,4.97260274 L173.438447,4.52054795 L174.342408,4.44821918 L174.342408,10.469589 C174.342408,11.409863 174.740151,11.8257534 175.626033,11.8257534 C176.181968,11.8257534 176.909657,11.3736986 177.592147,10.9216438 L177.958252,10.6865753 L177.958252,5.58739726 L176.868979,5.67780822 L176.783102,4.97260274 L178.767297,4.52054795 L179.671257,4.44821918 L179.666738,10.6323288 Z" id="Path"></path>
                    <path d="M186.374127,5.4969863 C185.963382,5.25108354 185.496658,5.11415542 185.018186,5.09917808 C184.313096,5.09917808 183.662244,5.47890411 183.662244,6.1660274 C183.662244,6.74465753 184.114225,7.10630137 184.92779,7.52219178 L186.319889,8.22739726 C187.531197,8.84219178 188.019336,9.52931507 188.019336,10.56 C188.019336,12.1873973 186.699553,12.820274 184.620443,13.2723288 C183.653412,13.2197621 182.71219,12.9410651 181.872402,12.4586301 L181.533417,10.4153425 L182.690487,10.4153425 L183.30066,11.9161644 C183.740335,12.2078812 184.255544,12.364983 184.783156,12.3682192 C185.160923,12.404814 185.536158,12.2769788 185.813042,12.0173565 C186.089927,11.7577342 186.241659,11.3914572 186.229493,11.0120548 C186.229493,10.3068493 185.84983,9.99945205 184.90971,9.51123288 L183.481452,8.76986301 C182.704046,8.37205479 181.962798,7.68493151 181.962798,6.67232877 C181.962798,5.40657534 183.142467,4.70136986 185.235136,4.24931507 C186.144423,4.27560071 187.027904,4.55760917 187.784306,5.0630137 L187.784306,6.87123288 L186.826107,6.87123288 L186.374127,5.4969863 Z" id="Path"></path>
                    <path d="M191.368511,12.9468493 L189.289401,13.0010959 L189.199005,12.3682192 L190.46455,12.1873973 L190.46455,5.58739726 L189.199005,5.69589041 L189.108609,5.0630137 L191.278115,4.50246575 L192.182075,4.43013699 L192.182075,12.1873973 L193.538017,12.3682192 L193.447621,13.0010959 L191.368511,12.9468493 Z M190.46455,0.50630137 L191.766253,0.415890411 L192.272472,0.50630137 L192.362868,1.51890411 L192.163996,2.38684932 L190.880372,2.49534247 L190.392233,2.38684932 L190.283758,1.37424658 L190.46455,0.50630137 Z" id="Shape"></path>
                    <path d="M196.340295,12.9468493 L194.261185,13.0010959 L194.170789,12.3682192 L195.436334,12.1873973 L195.436334,5.58739726 L194.170789,5.69589041 L194.080393,5.0630137 L196.249899,4.50246575 L197.027306,4.44821918 L197.117702,5.96712329 L199.793426,4.21315068 C202.107565,4.21315068 202.505308,4.99068493 202.505308,7.16054795 L202.505308,12.1873973 L203.86125,12.3682192 L203.775373,13.0010959 L201.691744,12.9468493 L199.960658,13.0010959 L199.870262,12.3682192 L200.774223,12.1873973 L200.774223,7.01589041 C200.774223,6.07561644 200.362921,5.65972603 199.585515,5.65972603 C198.952742,5.65972603 198.31997,6.05753425 197.705276,6.47342466 L197.1629,6.83506849 L197.1629,12.1873973 L198.157257,12.3682192 L198.066861,13.0010959 L196.340295,12.9468493 Z" id="Path"></path>
                    <path d="M205.849963,8.37205479 C205.849963,10.4334247 206.948276,11.8980822 208.846594,11.8980822 C209.652952,11.8449992 210.431689,11.5833004 211.106496,11.1386301 L211.395763,11.8257534 C210.423188,12.4660449 209.355331,12.9481855 208.2319,13.2542466 C206.044315,13.2542466 204.07368,11.6991781 204.07368,8.86027397 C204.07368,6.18410959 205.682731,4.75561644 208.164103,4.21315068 C210.54604,4.21315068 211.359605,5.7139726 211.359605,7.61260274 L211.359605,8.37205479 L205.849963,8.37205479 Z M209.465807,7.46794521 C209.465807,6.07561644 209.194619,5.11726027 207.802519,5.11726027 C206.699687,5.11726027 205.994597,6.14794521 205.849963,7.64876712 L209.465807,7.46794521 Z" id="Shape"></path>
                    <path d="M217.456821,5.4969863 C217.045439,5.25254105 216.5791,5.11572561 216.100879,5.09917808 C215.39579,5.09917808 214.744938,5.47890411 214.744938,6.1660274 C214.744938,6.74465753 215.196919,7.10630137 216.015003,7.52219178 L217.402583,8.22739726 C218.613891,8.84219178 219.106549,9.52931507 219.106549,10.56 C219.106549,12.1873973 217.782247,12.820274 215.703137,13.2723288 C214.736364,13.2182707 213.795479,12.9396735 212.955096,12.4586301 L212.61611,10.4153425 L213.77318,10.4153425 L214.383354,11.9161644 C214.823029,12.2078812 215.338238,12.364983 215.86585,12.3682192 C216.243617,12.404814 216.618851,12.2769788 216.895736,12.0173565 C217.172621,11.7577342 217.324353,11.3914572 217.312187,11.0120548 C217.312187,10.3068493 216.932523,9.99945205 215.992404,9.51123288 L214.518948,8.73369863 C213.741542,8.33589041 213.004813,7.64876712 213.004813,6.63616438 C213.004813,5.37041096 214.179963,4.66520548 216.272632,4.21315068 C217.182043,4.23870446 218.065722,4.52077602 218.821802,5.02684932 L218.821802,6.83506849 L217.863603,6.83506849 L217.456821,5.4969863 Z" id="Path"></path>
                    <path d="M224.977775,5.4969863 C224.566709,5.25181709 224.100179,5.11494588 223.621834,5.09917808 C222.916744,5.09917808 222.265892,5.47890411 222.265892,6.1660274 C222.265892,6.74465753 222.717873,7.10630137 223.531438,7.52219178 L224.923537,8.22739726 C226.130325,8.84219178 226.622984,9.52931507 226.622984,10.56 C226.622984,12.1873973 225.303201,12.820274 223.219571,13.2723288 C222.254086,13.2190635 221.31449,12.9403897 220.47605,12.4586301 L220.132545,10.4153425 L221.289615,10.4153425 L221.904308,11.9161644 C222.343983,12.2078812 222.859192,12.364983 223.386804,12.3682192 C223.764181,12.4049487 224.139048,12.2770066 224.415253,12.0172093 C224.691459,11.7574119 224.842131,11.391036 224.828621,11.0120548 C224.828621,10.3068493 224.448958,9.99945205 223.513358,9.51123288 L222.0851,8.76986301 C221.307694,8.37205479 220.566446,7.68493151 220.566446,6.67232877 C220.566446,5.40657534 221.741595,4.70136986 223.838784,4.24931507 C224.746689,4.27547049 225.628754,4.55752686 226.383434,5.0630137 L226.383434,6.87123288 L225.429755,6.87123288 L224.977775,5.4969863 Z" id="Path"></path>
                </g>
                <g id="badge" transform="translate(0.162713, 0.054247)" fill="#BF5700">
                    <polygon id="Path" points="12.605734 10.8764384 12.6328528 10.8764384 12.6328528 10.8673973 12.605734 10.8673973 12.605734 10.8764384"></polygon>
                    <path d="M15.8871118,8.1369863 C15.2525748,8.02275409 14.6105803,7.95476702 13.966195,7.93356164 C13.6849064,7.9310654 13.4042874,7.96140759 13.1300313,8.0239726 L12.9944371,4.19054795 L12.9944371,3.56219178 C13.3194203,3.44157229 13.6650051,3.38626962 14.0113931,3.39945205 C14.6175071,3.41756482 15.2216169,3.47798573 15.8193148,3.58027397 C16.3888101,3.66616438 16.9763847,3.74753425 17.5775186,3.78821918 L17.7402316,8.36753425 C17.1236362,8.32547296 16.509629,8.25153855 15.9006712,8.1460274 L15.8871118,8.1369863 Z M9.35147493,8.1369863 C8.7425172,8.24249746 8.12851001,8.31643186 7.51191461,8.35849315 L7.67462757,3.77917808 C8.27576153,3.73849315 8.86333608,3.65712329 9.43283141,3.57123288 C10.0305293,3.46894464 10.634639,3.40852372 11.2407531,3.39041096 C11.5871411,3.37722852 11.9327259,3.43253119 12.257709,3.55315068 L12.257709,4.19054795 L12.1175951,8.0239726 C11.844915,7.96114111 11.5657605,7.93079324 11.2859511,7.93356164 C10.6415658,7.95476702 9.99957137,8.02275409 9.36503434,8.1369863 L9.35147493,8.1369863 Z M19.0826134,5.42465753 L19.0826134,4.56123288 L18.5447567,4.56123288 L18.5447567,3.0739726 L18.1831724,3.0739726 C17.425633,3.05612053 16.6703699,2.98360335 15.9232703,2.8569863 C15.2958926,2.74735495 14.6615262,2.68239723 14.0249525,2.66260274 C13.5468195,2.64631097 13.0711183,2.73745056 12.6328528,2.92931507 C12.1907915,2.73389464 11.710214,2.64116345 11.2271937,2.65808219 C10.5906199,2.67787668 9.95625358,2.7428344 9.32887591,2.85246575 C8.58177624,2.9790828 7.82651319,3.05159998 7.0689738,3.06945205 L6.70738946,3.06945205 L6.70738946,4.55671233 L6.16501296,4.55671233 L6.16501296,5.42917808 L6.70286966,5.42917808 L6.70286966,6.6090411 L6.16501296,6.6090411 L6.16501296,7.48150685 L6.69834985,7.48150685 L6.69834985,9.09534247 L7.0689738,9.09534247 C7.87562159,9.07677154 8.67958317,8.99515298 9.47350965,8.85123288 C10.0707719,8.74282244 10.6748888,8.67635865 11.2814313,8.65232877 C11.6251541,8.63612425 11.9677358,8.70279138 12.2803081,8.84671233 L12.9763579,8.84671233 C13.2887651,8.70227973 13.6314731,8.63558802 13.9752346,8.65232877 C14.5817772,8.67635865 15.1858941,8.74282244 15.7831563,8.85123288 C16.5771136,8.99493436 17.3810581,9.07655118 18.1876922,9.09534247 L18.5492765,9.09534247 L18.5492765,7.48150685 L19.0826134,7.48150685 L19.0826134,6.6090411 L18.5492765,6.6090411 L18.5492765,5.43369863 L19.0826134,5.42465753 Z" id="Shape"></path>
                    <path d="M9.44639082,4.23123288 L9.34243532,4.23123288 C8.9989302,4.2809589 8.65542508,4.33068493 8.30288035,4.37136986 L8.30288035,4.9590411 C8.68706371,4.91383562 9.06672727,4.85958904 9.44187102,4.80534247 L9.46447004,4.80534247 L9.46447004,4.21767123 L9.44639082,4.23123288 Z" id="Path"></path>
                    <path d="M9.88481183,4.16794521 L9.88481183,4.75561644 C10.4383717,4.66041042 11.0004487,4.62404366 11.5616592,4.64712329 L11.5616592,4.06849315 C10.9947813,4.04502628 10.4269782,4.07834288 9.86673261,4.16794521 L9.88481183,4.16794521 Z" id="Path"></path>
                    <path d="M9.44639082,6.88931507 L9.34243532,6.88931507 C8.96729157,6.94808219 8.59214782,7.00232877 8.20796446,7.0430137 L8.20796446,7.63068493 C8.62830626,7.58547945 9.04412824,7.52671233 9.44639082,7.46794521 L9.46898984,7.46794521 L9.46898984,6.88027397 L9.44639082,6.88931507 Z" id="Path"></path>
                    <path d="M9.88481183,6.8260274 L9.88481183,7.41369863 C10.407335,7.32584747 10.9370405,7.28800514 11.4667433,7.30068493 L11.4667433,6.72205479 C10.9313339,6.70686198 10.3956751,6.7416704 9.86673261,6.8260274 L9.88481183,6.8260274 Z" id="Path"></path>
                    <path d="M9.36051454,5.57383562 L9.36051454,6.16150685 L9.4237918,6.16150685 C10.1121588,6.03237791 10.8116278,5.97180786 11.5119413,5.98068493 L11.5119413,5.40657534 C10.7831343,5.39047409 10.054609,5.44955343 9.33791552,5.58287671 L9.36051454,5.57383562 Z" id="Path"></path>
                    <polygon id="Path" points="8.92209353 5.63712329 8.25768231 5.7230137 8.25768231 6.31068493 8.94469255 6.22479452 8.94469255 5.63712329"></polygon>
                    <path d="M15.0916263,4.13630137 C14.6173107,4.06781931 14.1375101,4.04511208 13.6588484,4.06849315 L13.6588484,4.64712329 C14.1316415,4.62611869 14.6053598,4.65033831 15.0735471,4.71945205 L15.0735471,4.13630137 L15.0916263,4.13630137 Z" id="Path"></path>
                    <path d="M16.9357064,4.38945205 C16.5831617,4.34876712 16.2396566,4.2990411 15.8961514,4.24931507 L15.5255275,4.19506849 L15.5255275,4.77821918 L15.814795,4.82342466 C16.1854189,4.87767123 16.5696023,4.93191781 16.9583054,4.97712329 L16.9583054,4.38945205 L16.9357064,4.38945205 Z" id="Path"></path>
                    <path d="M14.9695916,5.45178082 C14.5503769,5.39405109 14.1266623,5.3758889 13.7040464,5.39753425 L13.7040464,5.97164384 C14.1194283,5.9539828 14.5355515,5.97517074 14.9469926,6.03493151 L14.9469926,5.45178082 L14.9695916,5.45178082 Z" id="Path"></path>
                    <path d="M16.9809045,5.7230137 C16.6148003,5.68232877 16.253216,5.62808219 15.8961514,5.57383562 L15.4034928,5.5060274 L15.4034928,6.08917808 L15.814795,6.15246575 C16.2034981,6.20671233 16.6012409,6.26547945 17.0035035,6.31068493 L17.0035035,5.7230137 L16.9809045,5.7230137 Z" id="Path"></path>
                    <path d="M15.8419138,7.48150685 C16.2351368,7.54027397 16.6419191,7.5990411 17.0532213,7.64424658 L17.0532213,7.05657534 C16.669038,7.01589041 16.2938942,6.96164384 15.9187505,6.90287671 L15.8645128,6.90287671 L15.8645128,7.4860274 L15.8419138,7.48150685 Z" id="Path"></path>
                    <path d="M15.4034928,6.83506849 C14.8583426,6.74574497 14.3060003,6.70790708 13.7537642,6.72205479 L13.7537642,7.30068493 C14.3002977,7.28911587 14.8466812,7.32998784 15.3854136,7.42273973 L15.3854136,6.83506849 L15.4034928,6.83506849 Z" id="Path"></path>
                    <path d="M11.8644861,16.219726 L12.6192934,14.330137 L13.3966997,16.219726 L15.4306116,16.3553425 L13.8486801,17.6436986 L14.3458586,19.6191781 L12.6238132,18.5342466 L10.9017678,19.6191781 L11.403466,17.6436986 L9.83961379,16.3417808 L11.8690059,16.2061644 L11.8644861,16.219726 Z M7.26332538,15.5506849 L7.26332538,15.5506849 L10.5447032,17.9375342 L9.27915806,21.8252055 C9.27915806,21.8252055 9.27915806,21.8252055 9.27915806,21.8252055 L9.27915806,21.8252055 L12.5876548,19.420274 L15.8961514,21.8252055 L15.8961514,21.8252055 C15.9047649,21.8164166 15.9047649,21.8023506 15.8961514,21.7935616 L14.6351261,17.9194521 L17.9165039,15.5326027 L17.9165039,15.5326027 C17.9322472,15.5281977 17.9420428,15.5125222 17.9391029,15.4964384 C17.9268291,15.4880867 17.9106985,15.4880867 17.8984247,15.4964384 L13.8306009,15.4964384 L12.5786151,11.6358904 L12.5786151,11.6358904 C12.5786151,11.6209106 12.5664736,11.6087671 12.5514963,11.6087671 C12.536519,11.6087671 12.5243775,11.6209106 12.5243775,11.6358904 L12.5243775,11.6358904 L11.2678719,15.4964384 L7.20004812,15.4964384 C7.18777431,15.4880867 7.1716437,15.4880867 7.15936988,15.4964384 C7.15643004,15.5125222 7.16622561,15.5281977 7.18196891,15.5326027 L7.26332538,15.5506849 Z" id="Shape"></path>
                    <path d="M20.7639806,20.4147945 C20.4704809,20.7390432 20.0862055,20.9674412 19.6611484,21.070274 C19.7204744,20.635776 19.9095052,20.2292928 20.2035249,19.9039726 C20.4961186,19.578618 20.8807618,19.3500014 21.3063571,19.2484932 C21.2489711,19.6835584 21.0596839,20.0905928 20.7639806,20.4147945 L20.7639806,20.4147945 Z M19.1775293,17.8606849 C19.1192739,17.4250515 19.1949426,16.9820014 19.3944799,16.590411 C19.6841649,16.9193122 19.8697751,17.326778 19.9278168,17.7612329 C19.9860722,18.1968664 19.9104035,18.6399164 19.7108662,19.0315068 C19.4211813,18.7026056 19.235571,18.2951398 19.1775293,17.8606849 L19.1775293,17.8606849 Z M20.0543713,14.5380822 C19.9731808,14.1071832 20.0219529,13.6618686 20.1944853,13.2587671 C20.5059282,13.5674146 20.7170118,13.9628675 20.800139,14.3934247 C20.8808769,14.8258318 20.8321336,15.2724571 20.6600251,15.6772603 C20.349369,15.3662202 20.1385008,14.9695967 20.0543713,14.5380822 L20.0543713,14.5380822 Z M22.1515605,15.51 C22.2155087,16.4044481 21.7261584,17.2470579 20.9176539,17.6346575 C20.8856519,17.1962006 20.9864539,16.7582701 21.2069214,16.3779452 C21.4269095,15.9998331 21.7562482,15.697233 22.1515605,15.51 L22.1515605,15.51 Z M18.9379797,23.76 C18.5830739,24.0158761 18.1594863,24.1591951 17.7221523,24.1713699 C17.8705585,23.7592624 18.139949,23.4015916 18.4950389,23.1452055 C18.8484931,22.8859377 19.272694,22.740834 19.7108662,22.7293151 C19.5625038,23.1426734 19.293197,23.5018084 18.9379797,23.76 Z M17.9165039,20.9346575 C17.9506034,20.4966851 18.1160007,20.0791851 18.3910834,19.7367123 C18.8356928,20.5158089 18.7586064,21.4876161 18.1967318,22.1868493 C17.9787064,21.8074603 17.8809874,21.3708054 17.9165039,20.9346575 L17.9165039,20.9346575 Z M16.7639539,23.9046575 C16.6428544,24.3261079 16.3951261,24.7001287 16.0543446,24.9760274 C15.7823964,24.1224707 16.0581717,23.1893369 16.7503944,22.6208219 C16.8815891,23.0387088 16.8815891,23.4867707 16.7503944,23.9046575 L16.7639539,23.9046575 Z M17.4283651,25.8213699 C17.1986584,26.1943399 16.8614631,26.4890403 16.461127,26.6667123 C16.1772397,26.795126 15.8687194,26.8599259 15.5571661,26.8565753 L15.5571661,26.8565753 C15.4266881,26.8582083 15.2964011,26.8460866 15.168463,26.820411 C15.399461,26.4485362 15.736277,26.1541673 16.1357011,25.9750685 C16.5354063,25.7966769 16.9796417,25.7431078 17.4102859,25.8213699 L17.4283651,25.8213699 Z M13.6407691,25.9931507 C13.8451362,25.6083153 14.1599579,25.2934418 14.54473,25.0890411 C14.6329561,25.9809378 14.1717777,26.8372976 13.3786205,27.2543836 C13.333625,26.8185738 13.4202107,26.3792759 13.6272097,25.9931507 L13.6407691,25.9931507 Z M8.73678156,26.6667123 C8.33508459,26.4893214 7.99636048,26.1946617 7.76502365,25.8213699 C8.65240135,25.6549588 9.55064944,26.0520498 10.0249258,26.820411 C9.59436347,26.9012848 9.14934597,26.8476214 8.75034097,26.6667123 L8.73678156,26.6667123 Z M8.42491507,23.9046575 C8.29599997,23.4864242 8.29599997,23.0390553 8.42491507,22.6208219 C9.1188059,23.1882553 9.39339399,24.1234445 9.11644511,24.9760274 C8.78384658,24.6962409 8.54293022,24.3229953 8.42491507,23.9046575 L8.42491507,23.9046575 Z M10.6350993,25.0890411 C11.4338088,25.5004943 11.8971928,26.3609494 11.8012088,27.2543836 C11.0043687,26.8410286 10.5417318,25.9819605 10.6350993,25.0890411 L10.6350993,25.0890411 Z M6.25540904,23.7735616 C5.89898661,23.516596 5.62937067,23.1570489 5.48252252,22.7428767 C6.37815891,22.7708222 7.16619297,23.3422409 7.47123638,24.1849315 C7.03375302,24.1735946 6.60992501,24.0301942 6.25540904,23.7735616 L6.25540904,23.7735616 Z M6.80682516,19.750274 C7.36972457,20.4494902 7.44513542,21.4228094 6.99665693,22.200411 C6.43989172,21.4987737 6.36478056,20.5293225 6.80682516,19.750274 L6.80682516,19.750274 Z M4.42940814,20.4283562 C4.13971598,20.0969246 3.95695781,19.6856511 3.90511085,19.2484932 C4.33255283,19.3486112 4.7190335,19.5773823 5.01246288,19.9039726 C5.30648254,20.2292928 5.49551336,20.635776 5.55483939,21.070274 C5.12978222,20.9674412 4.74550681,20.7390432 4.45200716,20.4147945 L4.42940814,20.4283562 Z M4.27573479,17.6482192 C3.46723031,17.2606196 2.97788002,16.4180097 3.04182824,15.5235616 C3.85304415,15.9082192 4.34358155,16.7528731 4.27573479,17.6482192 L4.27573479,17.6482192 Z M4.3932497,14.4069863 C4.4745808,13.9767705 4.68413716,13.5812268 4.99438366,13.2723288 C5.17133765,13.6742568 5.22025881,14.1209331 5.13449759,14.5516438 C5.05215552,14.9828191 4.84281497,15.3795296 4.53336363,15.6908219 C4.35689707,15.2871686 4.30800834,14.839211 4.3932497,14.4069863 L4.3932497,14.4069863 Z M5.26105211,17.7612329 C5.3169454,17.3261627 5.50283,16.9180946 5.79438901,16.590411 C5.98841651,16.9838092 6.06379762,17.4251754 6.01133961,17.8606849 C5.95329791,18.2951398 5.76768766,18.7026056 5.47800271,19.0315068 C5.27846539,18.6399164 5.20279669,18.1968664 5.26105211,17.7612329 L5.26105211,17.7612329 Z M20.754941,18.3127397 C22.1528057,17.8965798 22.9874394,16.4663915 22.6622984,15.0443836 L22.5945013,14.7415068 L22.2961942,14.8319178 C21.9573118,14.9309942 21.6410338,15.0953015 21.3651145,15.3156164 C21.4309804,14.9752127 21.4309804,14.6253352 21.3651145,14.2849315 C21.2337365,13.5945858 20.8442037,12.9802836 20.2758417,12.5671233 L20.0227327,12.3863014 L19.8600197,12.6484932 C19.0801715,13.8780997 19.3886878,15.5020327 20.5651092,16.359863 C20.4588793,16.5938517 20.3873168,16.8420774 20.3526784,17.0967123 C20.1844217,16.6320222 19.8940004,16.2213051 19.5119948,15.9078082 L19.2724452,15.7089041 L19.091653,15.9620548 C18.6852778,16.5354333 18.5079405,17.240062 18.5944746,17.9375342 C18.6873633,18.6337977 19.0411598,19.2687974 19.5843117,19.7141096 L19.5843117,19.7141096 C19.4235616,19.9290912 19.2956124,20.1667503 19.2046481,20.4193151 C19.13803,19.9308827 18.9395813,19.4698434 18.630633,19.0857534 L18.4362814,18.8416438 L18.2057714,19.049589 C17.1318988,20.0353882 17.0035761,21.6841127 17.9119841,22.8242466 L17.9119841,22.8242466 C17.7104779,23.0005525 17.5367645,23.2062996 17.3967264,23.4345205 C17.4296981,22.9410559 17.3298091,22.4477728 17.107459,22.0060274 L16.9718648,21.730274 L16.7006766,21.8884932 C15.4554054,22.6303894 14.990729,24.2058229 15.6340028,25.5049315 L15.6340028,25.5049315 C15.4005501,25.6379869 15.1874443,25.8039323 15.0012302,25.9976712 C15.1322508,25.5213136 15.1322508,25.0184125 15.0012302,24.5420548 L14.9198737,24.2436986 L14.6260865,24.3386301 C13.9605413,24.5654077 13.4052071,25.035259 13.0712738,25.6541096 C12.7498761,26.2518572 12.6597755,26.9470338 12.8181648,27.6069863 L12.5379369,27.7968493 L12.2622288,27.6069863 C12.5945489,26.2139603 11.8108276,24.7971509 10.4543072,24.3386301 L10.1605199,24.2436986 L10.0791634,24.5420548 C9.95034322,25.0187071 9.95034322,25.5210189 10.0791634,25.9976712 C9.89458597,25.8039972 9.68297912,25.6380336 9.45091062,25.5049315 L9.45091062,25.5049315 C10.095744,24.2048862 9.62850836,22.6274598 8.37971702,21.8884932 L8.11304857,21.730274 L7.97293464,22.0060274 C7.75400703,22.4488404 7.65578466,22.9415924 7.68818698,23.4345205 C7.54814894,23.2062996 7.37443551,23.0005525 7.1729293,22.8242466 L7.1729293,22.8242466 C8.08247762,21.6836636 7.95203481,20.033093 6.87462222,19.049589 L6.64863201,18.8416438 L6.45428043,19.0857534 C6.1467825,19.4712012 5.94713449,19.9314032 5.87574549,20.4193151 C5.78797511,20.1662306 5.66141738,19.9283239 5.50060174,19.7141096 L5.50060174,19.7141096 C6.09336472,19.2932326 6.49488751,18.6542673 6.61699338,17.9375342 C6.70752441,17.2404771 6.53157133,16.5349344 6.12433472,15.9620548 L5.93902275,15.7089041 L5.69947312,15.9078082 C5.32010479,16.2227825 5.03148603,16.6331567 4.86330934,17.0967123 C4.82653281,16.8425334 4.75505579,16.5946042 4.65087854,16.359863 C5.21327686,15.9439028 5.60012376,15.3329065 5.73563156,14.6465753 C5.86685952,13.9564929 5.73115626,13.2423178 5.355968,12.6484932 L5.19325505,12.3863014 L4.94014601,12.5671233 C4.37178408,12.9802836 3.98225126,13.5945858 3.8508732,14.2849315 C3.78500732,14.6253352 3.78500732,14.9752127 3.8508732,15.3156164 C3.5749539,15.0953015 3.2586759,14.9309942 2.91979353,14.8319178 L2.62148645,14.7415068 L2.55368938,15.0443836 C2.22815096,16.4650669 3.06047991,17.8946936 4.45652696,18.3127397 L4.71867561,18.389589 C4.74774931,18.6106343 4.80235159,18.8275624 4.88138856,19.0360274 C4.50375,18.7941395 4.07203026,18.6496915 3.62488298,18.6156164 L3.3175363,18.5884932 L3.3175363,18.900411 C3.29120853,20.3573597 4.40106657,21.5841426 5.85314646,21.7031507 L6.12885452,21.7257534 C6.20132707,21.9354059 6.29842908,22.1357118 6.41812199,22.3224658 C6.11003966,22.2081929 5.78398892,22.1500147 5.45540369,22.1506849 C5.33798587,22.1439285 5.22027679,22.1439285 5.10285896,22.1506849 L4.79551228,22.1913699 L4.85426973,22.4942466 C4.99018942,23.1839342 5.38067272,23.7971906 5.94806235,24.2120548 C6.40371953,24.5510882 6.95320825,24.7405982 7.52095422,24.7545205 C7.63679007,24.7634679 7.7531433,24.7634679 7.86897915,24.7545205 L8.1401674,24.7228767 C8.25519303,24.9139179 8.39333642,25.0900418 8.55146958,25.2472603 C8.10821994,25.1781405 7.65474918,25.2200779 7.23168675,25.3693151 L6.93789948,25.4732877 L7.05993419,25.7580822 C7.33393971,26.4044665 7.842679,26.9229814 8.48367252,27.2091781 C8.8345857,27.3673773 9.21515025,27.4490503 9.60006416,27.4487671 C9.90770758,27.4467121 10.2129849,27.3948064 10.504025,27.2950685 L10.7209756,27.2182192 C11.1460098,27.5744142 11.5895692,27.907893 12.0497981,28.2172603 L11.1955551,28.7732877 L11.7424514,29.1123288 L12.5695755,28.569863 L13.4012195,29.1123288 L13.9481158,28.7732877 L13.0938728,28.2172603 C13.5541017,27.907893 13.9976611,27.5744142 14.4226953,27.2182192 L14.6396459,27.2950685 C14.9306464,27.3949618 15.2359493,27.4468719 15.5436067,27.4487671 L15.5436067,27.4487671 C15.9299427,27.4487299 16.311915,27.3670853 16.6645182,27.2091781 C17.3055117,26.9229814 17.814251,26.4044665 18.0882565,25.7580822 L18.2102912,25.4732877 L17.9165039,25.3693151 C17.4934415,25.2200779 17.0399707,25.1781405 16.5967211,25.2472603 C16.7548543,25.0900418 16.8929977,24.9139179 17.0080233,24.7228767 L17.2792115,24.7545205 C17.3950402,24.7636511 17.5114077,24.7636511 17.6272365,24.7545205 L17.6272365,24.7545205 C18.2088687,24.7578006 18.7761448,24.5739602 19.2453264,24.230137 C19.8153861,23.8177837 20.2066034,23.2033745 20.339119,22.5123288 L20.4023962,22.2094521 L20.0905298,22.1687671 C19.9731152,22.1618992 19.8553996,22.1618992 19.737985,22.1687671 C19.4094675,22.1688659 19.0835514,22.2270201 18.7752667,22.3405479 C18.8981689,22.1549488 18.9968949,21.954426 19.069054,21.7438356 L19.3402423,21.7212329 C20.7919931,21.6001732 21.9020448,20.3753595 21.8803722,18.9184932 L21.8803722,18.6065753 L21.5685057,18.6336986 C21.1213585,18.6677736 20.6896387,18.8122216 20.3120002,19.0541096 C20.3931451,18.846313 20.4478125,18.629126 20.4747131,18.4076712 L20.7368618,18.3308219 L20.754941,18.3127397 Z" id="Shape"></path>
                    <path d="M20.8408173,24.4471233 C20.2336545,25.3343138 19.535306,26.1555007 18.7571875,26.8972603 C16.9379688,28.5322746 14.8629591,29.8578116 12.6147736,30.8210959 C10.368756,29.8562964 8.29547043,28.5308855 6.47687945,26.8972603 C5.69751364,26.1566805 4.999048,25.3353558 4.3932497,24.4471233 C1.53221363,20.2610959 1.15706988,15.4060274 1.15706988,11.6313699 L1.15706988,11.6313699 L12.6192934,10.9939726 L24.0769971,11.6313699 C24.0769971,15.4060274 23.6973335,20.2610959 20.8408173,24.4471233 L20.8408173,24.4471233 Z M1.76724345,1.88958904 C3.89607124,1.65452055 8.68706371,1.17534247 12.6147736,1.17534247 C16.5424834,1.17534247 21.3334759,1.65452055 23.4623037,1.88958904 L24.0589179,10.2842466 L1.19322831,10.2842466 L1.76724345,1.88958904 Z M25.2385868,0.917671233 L24.7323687,0.849863014 C20.7134069,0.359279062 16.6718906,0.0756172116 12.6238132,0 L12.6238132,0 C8.57271769,0.0753075805 4.52817623,0.358969987 0.506218073,0.849863014 L0,0.913150685 L0,10.279726 L0,10.279726 L0,11.5906849 C0,15.5326027 0.388703163,20.6317808 3.43957101,25.0980822 C4.08059236,26.0362803 4.816699,26.9058168 5.63619586,27.6928767 L5.63619586,27.6928767 L5.63619586,27.6928767 C7.2859244,29.2841096 9.47350965,30.7849315 12.6012142,32.529863 L12.6012142,32.529863 C15.7289187,30.7849315 17.9119841,29.2841096 19.5662325,27.6928767 L19.5662325,27.6928767 L19.5662325,27.6928767 C20.3857293,26.9058168 21.121836,26.0362803 21.7628573,25.0980822 C24.8092054,20.6363014 25.2024283,15.5326027 25.2024283,11.5906849 L25.2024283,11.4008219 L25.2024283,11.4008219 L25.2024283,0.917671233 L25.2385868,0.917671233 Z" id="Shape"></path>
                </g>
                <g id="Utex" transform="translate(32.370838, 1.749452)" fill="#BF5700">
                    <path d="M11.1413174,8.58452055 L10.0068465,8.62520548 L9.94808909,8.20027397 L10.5356636,8.07821918 L10.5356636,4.63356164 C10.5356636,4.00520548 10.2463962,3.72945205 9.76729692,3.72945205 C9.30390297,3.80336059 8.86514567,3.98788606 8.48819233,4.26739726 L8.12660799,4.49794521 L8.12660799,8.07821918 L8.79101921,8.20027397 L8.72774195,8.62520548 L7.58423148,8.58452055 L6.3186863,8.62520548 L6.25992884,8.20027397 L6.98309752,8.07821918 L6.98309752,0.700684932 L6.5311171,0.773013699 L4.08138321,0.736849315 L4.08138321,8.04205479 L5.46896311,8.20027397 L5.41020565,8.62520548 L3.45765023,8.58452055 L1.42825813,8.62520548 L1.36950068,8.20027397 L2.81583803,8.04205479 L2.81583803,0.736849315 L1.00791634,0.773013699 L0.451980422,2.27835616 L-1.36489347e-14,2.27835616 L-1.36489347e-14,0.144657534 L3.46217003,0.171780822 L6.4271616,0.144657534 L7.7153058,-5.62107438e-15 L8.12660799,-5.62107438e-15 L8.12660799,3.91027397 L9.88481183,2.77109589 C11.4305849,2.77109589 11.6927335,3.34972603 11.6927335,4.88219178 L11.6927335,8.08726027 L12.5966944,8.20931507 L12.5379369,8.63424658 L11.1413174,8.58452055 Z" id="Path"></path>
                    <path d="M14.2735417,5.53767123 C14.2735417,6.89383562 15.00575,7.88835616 16.2712952,7.88835616 C16.8156478,7.85411397 17.3419049,7.67970423 17.798989,7.38205479 L17.9888208,7.83410959 C17.3412768,8.26087815 16.63046,8.58278166 15.882592,8.78794521 C14.4226953,8.78794521 13.1074322,7.74821918 13.1074322,5.85863014 C13.1074322,4.05041096 14.1831456,3.11917808 15.8193148,2.75753425 C17.4102859,2.75753425 17.9526624,3.76109589 17.9526624,5.01780822 L17.9526624,5.52410959 L14.2735417,5.53767123 Z M16.6961568,4.93191781 C16.6961568,4.02780822 16.5153646,3.36328767 15.584285,3.36328767 C14.8520767,3.36328767 14.382017,4.05493151 14.2825813,5.0539726 L16.6961568,4.93191781 Z" id="Shape"></path>
                    <path d="M26.2781417,0.578630137 L26.3368992,0.158219178 L27.8826722,0.194383562 L29.2928511,0.158219178 L29.3516086,0.578630137 L28.325613,0.736849315 L28.325613,5.65520548 C28.325613,7.22383562 27.6883207,8.27260274 25.2883046,8.81958904 C22.9154074,8.81958904 22.070204,7.54027397 22.070204,5.62356164 L22.070204,0.736849315 L20.985451,0.578630137 L21.0442084,0.158219178 L22.7074964,0.194383562 L24.3617447,0.158219178 L24.4205022,0.578630137 L23.3945066,0.736849315 L23.3945066,5.81342466 C23.3945066,7.30972603 24.0363188,8.16410959 25.4103393,8.16410959 C26.6623251,8.16410959 27.3628947,7.31876712 27.3628947,5.77726027 L27.3628947,0.736849315 L26.2781417,0.578630137 Z" id="Path"></path>
                    <path d="M30.9787381,8.58452055 L29.5911582,8.62520548 L29.55048,8.19575342 L30.3911636,8.07369863 L30.3911636,3.67520548 L29.55048,3.74753425 L29.4872027,3.32712329 L30.9335401,2.95191781 L31.4533176,2.91575342 L31.512075,3.92835616 L33.2793185,2.77109589 C34.8250915,2.77109589 35.0872402,3.2909589 35.0872402,4.73753425 L35.0872402,8.08726027 L35.991201,8.20931507 L35.9324435,8.63424658 L34.5448637,8.59356164 L33.3877938,8.63424658 L33.3290363,8.20931507 L33.9301703,8.08726027 L33.9301703,4.64260274 C33.9301703,4.01424658 33.6544622,3.73849315 33.1346847,3.73849315 C32.6746911,3.79504974 32.2403711,3.9816656 31.882699,4.27643836 L31.5211146,4.52054795 L31.5211146,8.08726027 L32.181006,8.20931507 L32.1222486,8.63424658 L30.9787381,8.58452055 Z" id="Path"></path>
                    <path d="M37.884999,8.58452055 L36.4974191,8.62520548 L36.4386616,8.20027397 L37.2793452,8.07821918 L37.2793452,3.67520548 L36.4386616,3.74753425 L36.3753844,3.32712329 L37.8217217,2.95191781 L38.4273755,2.90219178 L38.4273755,8.07369863 L39.3313363,8.19575342 L39.2680591,8.62068493 L37.884999,8.58452055 Z M37.2793452,0.289315068 L38.1471476,0.230547945 L38.4861329,0.289315068 L38.5448904,0.96739726 L38.4138161,1.5460274 L37.5595731,1.61835616 L37.2341472,1.5460274 L37.1618303,0.867945205 L37.2793452,0.289315068 Z" id="Shape"></path>
                    <polygon id="Path" points="42.7166697 7.83863014 44.1765664 3.47178082 43.6206305 3.35424658 43.679388 2.93383562 44.741542 2.96547945 45.7449385 2.93383562 45.803696 3.35424658 45.0308094 3.47178082 43.055655 8.44438356 42.1742932 8.8060274 40.077104 3.48534247 39.3313363 3.36780822 39.3900938 2.94739726 40.7776737 2.9790411 42.0432189 2.94739726 42.1019763 3.36780822 41.3064908 3.48534247 42.6217538 7.02041096"></polygon>
                    <path d="M46.9833649,5.53767123 C46.9833649,6.89383562 47.720093,7.88835616 48.9856381,7.88835616 C49.5222124,7.85030275 50.0402261,7.67604726 50.4907329,7.38205479 L50.6850845,7.83410959 C50.0363704,8.26171009 49.3239307,8.58365766 48.574336,8.78794521 C47.1144392,8.78794521 45.803696,7.74821918 45.803696,5.85863014 C45.803696,4.05041096 46.8748896,3.11917808 48.5155785,2.75753425 C50.1065496,2.75753425 50.6489261,3.76109589 50.6489261,5.01780822 L50.6489261,5.52410959 L46.9833649,5.53767123 Z M49.4059799,4.93191781 C49.4059799,4.02780822 49.2251878,3.36328767 48.2986279,3.36328767 C47.5618998,3.36328767 47.0918402,4.05493151 46.9969243,5.0539726 L49.4059799,4.93191781 Z" id="Shape"></path>
                    <path d="M53.3608086,4.51150685 L54.7167499,2.82082192 L55.6794682,2.82082192 L55.6794682,4.02780822 L54.7755073,4.02780822 C54.3245306,4.20915264 53.9287754,4.5052387 53.6274771,4.88671233 L53.3879274,5.1760274 L53.3879274,8.04205479 L54.6534726,8.16410959 L54.5947152,8.61616438 L52.8455509,8.57547945 L51.4896097,8.61616438 L51.4308522,8.19123288 L52.2760556,8.06917808 L52.2760556,3.67520548 L51.4308522,3.74753425 L51.3720948,3.32712329 L52.8184321,2.95191781 L53.2975314,2.91575342 L53.3608086,4.51150685 Z" id="Path"></path>
                    <path d="M59.4941829,3.61643836 C59.2188923,3.45628531 58.9084697,3.36624794 58.5902221,3.35424658 C58.1382417,3.35424658 57.6862613,3.60739726 57.6862613,4.0639726 C57.6862613,4.45273973 57.9845683,4.69232877 58.5269448,4.96808219 L59.4580245,5.42013699 C60.2625497,5.83150685 60.5879756,6.28808219 60.5879756,6.97520548 C60.5879756,8.06013699 59.7111335,8.47150685 58.3280735,8.78342466 C57.6837759,8.74887276 57.0566723,8.5630337 56.4975527,8.2409589 L56.2670427,6.88479452 L57.0399293,6.88479452 L57.4467116,7.88835616 C57.7411418,8.08086399 58.0847945,8.1844476 58.4365488,8.18671233 C58.6883802,8.21166326 58.9387098,8.12657698 59.1231943,7.95332356 C59.3076789,7.78007015 59.4083264,7.53554619 59.3992671,7.28260274 C59.3992671,6.83054795 59.146158,6.60452055 58.522425,6.2790411 L57.5687463,5.78630137 C56.9919624,5.55263264 56.5989495,5.01039616 56.5563102,4.38945205 C56.5563102,3.54410959 57.3382363,3.0739726 58.7393756,2.77109589 C59.345484,2.7891046 59.9343409,2.97706856 60.438822,3.31356164 L60.438822,4.52054795 L59.7970098,4.52054795 L59.4941829,3.61643836 Z" id="Path"></path>
                    <path d="M62.8207589,8.58452055 L61.433179,8.62520548 L61.3744215,8.20027397 L62.2196249,8.07821918 L62.2196249,3.67520548 L61.3744215,3.74753425 L61.315664,3.32712329 L62.7620014,2.95191781 L63.3631354,2.90219178 L63.3631354,8.07369863 L64.2670962,8.19575342 L64.2083387,8.62068493 L62.8207589,8.58452055 Z M62.2196249,0.289315068 L63.0874273,0.230547945 L63.4218928,0.289315068 L63.4851701,0.96739726 L63.3495759,1.5460274 L62.4953329,1.61835616 L62.169907,1.5460274 L62.0975902,0.867945205 L62.2196249,0.289315068 Z" id="Shape"></path>
                    <path d="M68.8004598,11.4460274 L68.8004598,10.2390411 L69.835495,10.2390411 L71.0287233,8.43082192 L70.5451043,8.57547945 L68.520232,3.49890411 L66.7123103,3.49890411 L66.7123103,7.17863014 C66.7123103,7.52671233 66.8433846,7.90191781 67.3496027,7.90191781 C67.7240949,7.8675138 68.0865742,7.75180989 68.4117567,7.56287671 L68.6151479,7.97424658 L67.0964936,8.8060274 C65.7405524,8.8060274 65.56428,8.32232877 65.56428,7.23739726 L65.56428,3.63 L64.3981705,3.63 L64.3981705,3.42657534 L64.8185123,3.00616438 L65.6004384,3.00616438 L65.6004384,2.21958904 L66.3868844,1.43753425 L66.6987509,1.43753425 L66.6987509,2.94287671 L70.4953864,2.94287671 L70.5541439,3.35424658 L69.7586583,3.47178082 L71.1145996,7.00684932 L71.2140353,7.83863014 L72.7100905,3.47178082 L72.1541546,3.35424658 L72.212912,2.93383562 L73.275066,2.96547945 L74.2739427,2.93383562 L74.33722,3.35424658 L73.5643335,3.47178082 L71.5846592,8.40369863 L70.228718,11.4460274 L68.8004598,11.4460274 Z" id="Path"></path>
                    <path d="M82.2513972,5.65520548 C82.2513972,7.46342466 81.1530848,8.48958904 79.2864056,8.79246575 C77.6818751,8.79246575 76.5745231,7.54931507 76.5745231,5.90835616 C76.5745231,4.10013699 77.6728355,3.0739726 79.5395147,2.7439726 C81.1666442,2.77109589 82.2513972,4.01424658 82.2513972,5.65520548 Z M79.5847127,8.19575342 C80.5519508,8.19575342 81.0446095,7.20575342 81.0446095,5.90383562 C81.0446095,4.37589041 80.3078814,3.34972603 79.2592868,3.34972603 C78.2830091,3.34972603 77.8039098,4.33972603 77.8039098,5.65068493 C77.8039098,6.96164384 78.5135191,8.19575342 79.5847127,8.19575342 Z" id="Shape"></path>
                    <path d="M84.9632797,3.06493151 L86.4683745,3.06493151 L86.4683745,3.63 L84.9632797,3.63 L84.9632797,8.07821918 L86.3463398,8.16410959 L86.2875824,8.61616438 L84.4209032,8.57547945 L83.0333233,8.61616438 L82.9745659,8.19123288 L83.8152495,8.06917808 L83.8152495,3.63 L82.7530955,3.63 L82.7530955,3.42657534 L83.1146798,3.00616438 L83.8152495,3.00616438 L83.8152495,2.88410959 C83.8012532,2.25426984 84.0406195,1.64516959 84.4796607,1.19342466 L85.4920968,0.0587671233 L87.010751,0.0587671233 L87.010751,1.02164384 L85.442379,1.02164384 L85.2163888,1.34712329 C85.0446362,1.57767123 84.9632797,1.92575342 84.9632797,2.70328767 L84.9632797,3.06493151 Z" id="Path"></path>
                    <polygon id="Path" points="95.6887751 8.64780822 93.7362197 8.60712329 91.7113474 8.64780822 91.6480702 8.22287671 93.0989273 8.06465753 93.0989273 0.736849315 91.2910056 0.736849315 90.7395895 2.26931507 90.2876091 2.26931507 90.2876091 0.158219178 93.7452593 0.194383562 97.216469 0.158219178 97.216469 2.29191781 96.7644885 2.29191781 96.2130724 0.759452055 94.4051507 0.759452055 94.4051507 8.06465753 95.7882108 8.22287671"></polygon>
                    <path d="M97.8356821,5.53767123 C97.8356821,6.89383562 98.5678904,7.88835616 99.8334356,7.88835616 C100.371566,7.85106019 100.891227,7.67677406 101.34305,7.38205479 L101.532882,7.83410959 C100.885338,8.26087815 100.174521,8.58278166 99.4266532,8.78794521 C97.9667565,8.78794521 96.6514934,7.74821918 96.6514934,5.85863014 C96.6514934,4.05041096 97.722687,3.11917808 99.363376,2.75753425 C100.954347,2.75753425 101.496724,3.76109589 101.496724,5.01780822 L101.496724,5.52410959 L97.8356821,5.53767123 Z M100.258297,4.93191781 C100.258297,4.02780822 100.077505,3.36328767 99.1464254,3.36328767 C98.4142171,3.36328767 97.9441574,4.05493151 97.8447218,5.0539726 L100.258297,4.93191781 Z" id="Shape"></path>
                    <polygon id="Path" points="104.258324 8.19575342 104.199566 8.62068493 103.254927 8.58 102.016501 8.62068493 101.953224 8.19575342 102.798427 8.07369863 104.58375 5.88123288 102.834586 3.48082192 102.088818 3.35876712 102.147575 2.90671233 103.535155 2.93835616 104.678666 2.90671233 104.741943 3.35876712 104.289963 3.48082192 105.193923 4.8369863 105.288839 5.15342466 106.387152 3.48534247 105.795057 3.36328767 105.853815 2.91123288 106.793934 2.94287671 108.03688 2.91123288 108.095638 3.36328767 107.227835 3.48534247 105.636864 5.41561644 107.530662 8.07821918 108.27643 8.20027397 108.217672 8.62520548 106.830093 8.58452055 105.686582 8.62520548 105.627825 8.20027397 106.120483 8.07821918 105.04929 6.52315068 104.949854 6.24739726 103.670749 8.05561644"></polygon>
                    <path d="M111.092268,2.77109589 C112.610922,2.77109589 112.995105,3.15986301 112.995105,4.68780822 L112.995105,7.05205479 C112.963627,7.36805976 113.036665,7.68566781 113.203016,7.95616438 L113.80415,7.95616438 L113.853868,8.38109589 L112.299056,8.67945205 L111.923912,7.77534247 L110.486614,8.82410959 C109.451579,8.82410959 108.714851,8.24547945 108.714851,7.27808219 C108.723938,6.87083005 108.874108,6.47936504 109.139712,6.17054795 L111.851595,5.26643836 L111.851595,4.66520548 C111.851595,3.94191781 111.792838,3.50342466 111.141986,3.50342466 C110.801621,3.51875052 110.46659,3.59372423 110.152149,3.72493151 L109.944238,4.67424658 L108.909202,4.67424658 L108.909202,3.77013699 L111.092268,2.77109589 Z M111.851595,5.72753425 L110.102431,6.45082192 C109.93345,6.63289173 109.846818,6.87648203 109.862881,7.12438356 C109.862881,7.73917808 110.210906,7.95616438 110.558931,7.95616438 C110.846431,7.93345986 111.120453,7.82477799 111.345377,7.64424658 L111.851595,7.29164384 L111.851595,5.72753425 Z" id="Shape"></path>
                    <path d="M117.587227,3.61643836 C117.312536,3.4548888 117.001754,3.36474717 116.683266,3.35424658 C116.231285,3.35424658 115.779305,3.60739726 115.779305,4.0639726 C115.779305,4.45273973 116.077612,4.69232877 116.619988,4.96808219 L117.551068,5.42013699 C118.360113,5.83150685 118.685539,6.28808219 118.685539,6.97520548 C118.685539,8.06013699 117.781578,8.47150685 116.425637,8.78342466 C115.781339,8.74887276 115.154236,8.5630337 114.595116,8.2409589 L114.364606,6.88479452 L115.137493,6.88479452 L115.544275,7.88835616 C115.838705,8.08086399 116.182358,8.1844476 116.534112,8.18671233 C116.786682,8.21306367 117.03827,8.12860622 117.223799,7.95518607 C117.409328,7.78176592 117.510575,7.53641721 117.50135,7.28260274 C117.50135,6.83054795 117.248241,6.60452055 116.619988,6.2790411 L115.66631,5.78630137 C115.089526,5.55263264 114.696513,5.01039616 114.653874,4.38945205 C114.653874,3.54410959 115.4358,3.0739726 116.836939,2.77109589 C117.443172,2.78837606 118.032225,2.97640269 118.536385,3.31356164 L118.536385,4.52054795 L117.867454,4.52054795 L117.587227,3.61643836 Z" id="Path"></path>
                    <path d="M124.733037,2.77109589 C126.256211,2.77109589 126.640394,3.15986301 126.640394,4.68780822 L126.640394,7.05205479 C126.610507,7.36737832 126.681743,7.6840323 126.843786,7.95616438 L127.449439,7.95616438 L127.494637,8.38109589 L125.939825,8.67945205 L125.569201,7.77534247 L124.131903,8.82410959 C123.096868,8.82410959 122.36014,8.24547945 122.36014,7.27808219 C122.369437,6.87167818 122.517804,6.48075485 122.780482,6.17054795 L125.492364,5.26643836 L125.492364,4.66520548 C125.492364,3.94191781 125.429087,3.50342466 124.778235,3.50342466 C124.43787,3.51875052 124.102839,3.59372423 123.788398,3.72493151 L123.585007,4.67424658 L122.549972,4.67424658 L122.549972,3.77013699 L124.733037,2.77109589 Z M125.496884,5.72753425 L123.74772,6.45082192 C123.577097,6.63214821 123.488799,6.87582736 123.50365,7.12438356 C123.50365,7.73917808 123.856195,7.95616438 124.20422,7.95616438 C124.490601,7.934526 124.763484,7.82567056 124.986146,7.64424658 L125.496884,7.29164384 L125.496884,5.72753425 Z" id="Shape"></path>
                    <path d="M127.43588,3.63 L127.43588,3.42657534 L127.856222,3.00616438 L128.638148,3.00616438 L128.638148,2.21958904 L129.438153,1.43753425 L129.75002,1.43753425 L129.75002,3.08753425 L131.557941,3.08753425 L131.557941,3.63 L129.75002,3.63 L129.75002,7.16506849 C129.75002,7.51315068 129.881094,7.88835616 130.387312,7.88835616 C130.724178,7.87194882 131.051774,7.77256666 131.340991,7.5990411 L131.544382,8.00589041 L130.134203,8.79246575 C128.778262,8.79246575 128.601989,8.30876712 128.601989,7.22383562 L128.601989,3.63 L127.43588,3.63 Z" id="Path"></path>
                    <path d="M136.642721,5.79082192 L135.860795,8.05109589 L136.90939,8.20931507 L136.846112,8.63424658 L135.399775,8.59356164 L134.111631,8.63424658 L134.052873,8.20931507 L134.992993,8.07821918 L137.980583,0.262191781 L138.703752,0.0587671233 L141.867615,8.07821918 L142.807734,8.20931507 L142.748977,8.63424658 L141.085689,8.59356164 L139.494718,8.63424658 L139.43596,8.20931507 L140.457436,8.05109589 L139.639351,5.79082192 L136.642721,5.79082192 Z M138.247252,2.03876712 L138.161375,1.38780822 L136.837073,5.22123288 L139.404322,5.22123288 L138.247252,2.03876712 Z" id="Shape"></path>
                    <path d="M147.915113,7.0430137 C147.890833,7.3515958 147.940414,7.66152299 148.059747,7.94712329 L148.660881,7.94712329 L148.710598,8.37205479 L147.155786,8.67041096 L146.8168,7.6939726 L145.067636,8.79246575 C143.476665,8.79246575 143.209997,8.22287671 143.209997,6.8260274 L143.209997,3.67520548 L142.369313,3.7339726 L142.306036,3.28191781 L143.752373,2.97 L144.353507,2.90671233 L144.353507,6.9209589 C144.353507,7.54931507 144.615656,7.82506849 145.20775,7.82506849 C145.689642,7.73813529 146.141935,7.53138311 146.523013,7.22383562 L146.762563,7.06561644 L146.762563,3.67520548 L146.039394,3.7339726 L145.980637,3.28191781 L147.304939,2.97 L147.910593,2.92027397 L147.915113,7.0430137 Z" id="Path"></path>
                    <path d="M152.489155,3.61643836 C152.214541,3.4547104 151.903712,3.36455529 151.585194,3.35424658 C151.133214,3.35424658 150.681233,3.60739726 150.681233,4.0639726 C150.681233,4.45273973 150.98406,4.69232877 151.526436,4.96808219 L152.430397,5.42013699 C153.239442,5.83150685 153.564868,6.28808219 153.564868,6.97520548 C153.564868,8.06013699 152.660907,8.47150685 151.304966,8.78342466 C150.660784,8.74820277 150.033833,8.5624088 149.474445,8.2409589 L149.243935,6.88479452 L150.016822,6.88479452 L150.428124,7.88835616 C150.720714,8.08120986 151.063034,8.18486499 151.413441,8.18671233 C151.666011,8.21306367 151.917599,8.12860622 152.103128,7.95518607 C152.288657,7.78176592 152.389904,7.53641721 152.380679,7.28260274 C152.380679,6.83054795 152.12757,6.60452055 151.499318,6.2790411 L150.545639,5.78630137 C149.970232,5.55087615 149.57794,5.0096333 149.533203,4.38945205 C149.533203,3.54410959 150.319649,3.0739726 151.716268,2.77109589 C152.322501,2.78837606 152.911554,2.97640269 153.415715,3.31356164 L153.415715,4.52054795 L152.778422,4.52054795 L152.489155,3.61643836 Z" id="Path"></path>
                    <path d="M153.962611,3.63 L153.962611,3.42657534 L154.382953,3.00616438 L155.169399,3.00616438 L155.169399,2.21958904 L155.951325,1.43753425 L156.263191,1.43753425 L156.263191,3.08753425 L158.071113,3.08753425 L158.071113,3.63 L156.263191,3.63 L156.263191,7.16506849 C156.263191,7.51315068 156.394266,7.88835616 156.900484,7.88835616 C157.237446,7.87250926 157.565177,7.77308648 157.854162,7.5990411 L158.062073,8.00589041 L156.647375,8.79246575 C155.291433,8.79246575 155.119681,8.30876712 155.119681,7.22383562 L155.119681,3.63 L153.962611,3.63 Z" id="Path"></path>
                    <path d="M160.21802,8.58452055 L158.816881,8.64780822 L158.758123,8.22287671 L159.603327,8.10082192 L159.603327,3.67520548 L158.758123,3.74753425 L158.699366,3.32712329 L160.145703,2.95191781 L160.746837,2.90219178 L160.746837,8.07369863 L161.650798,8.19575342 L161.59204,8.62068493 L160.21802,8.58452055 Z M159.616886,0.289315068 L160.484688,0.230547945 L160.819154,0.289315068 L160.882431,0.96739726 L160.746837,1.5460274 L159.892594,1.61835616 L159.567168,1.5460274 L159.494851,0.867945205 L159.616886,0.289315068 Z" id="Shape"></path>
                    <path d="M163.653071,8.58452055 L162.265491,8.62520548 L162.206734,8.20027397 L163.051937,8.07821918 L163.051937,3.67520548 L162.206734,3.74753425 L162.147976,3.32712329 L163.594314,2.95191781 L164.109571,2.91575342 L164.172849,3.92835616 L165.953652,2.77109589 C167.499425,2.77109589 167.761573,3.2909589 167.761573,4.73753425 L167.761573,8.08726027 L168.665534,8.20931507 L168.602257,8.63424658 L167.214677,8.59356164 L166.048567,8.64780822 L165.98981,8.22287671 L166.590944,8.10082192 L166.590944,4.65616438 C166.590944,4.02780822 166.315236,3.75205479 165.795458,3.75205479 C165.335662,3.80933977 164.901537,3.99587172 164.543473,4.29 L164.181888,4.53410959 L164.181888,8.10082192 L164.8463,8.22287671 L164.783022,8.64780822 L163.653071,8.58452055 Z" id="Path"></path>
                </g>
            </g>
        </g>
    </g>
</svg>